<?xml version="1.0" encoding="UTF-8" standalone="no"?>
<!-- Created with Inkscape (http://www.inkscape.org/) -->

<svg
   xmlns:dc="http://purl.org/dc/elements/1.1/"
   xmlns:cc="http://creativecommons.org/ns#"
   xmlns:rdf="http://www.w3.org/1999/02/22-rdf-syntax-ns#"
   xmlns:svg="http://www.w3.org/2000/svg"
   xmlns="http://www.w3.org/2000/svg"
   xmlns:sodipodi="http://sodipodi.sourceforge.net/DTD/sodipodi-0.dtd"
   xmlns:inkscape="http://www.inkscape.org/namespaces/inkscape"
   width="90.645767mm"
   height="53.681389mm"
   viewBox="0 0 90.645767 53.681389"
   version="1.1"
   id="svg68"
   inkscape:version="0.92.0 r15299"
   sodipodi:docname="riu hotels new.svg">
  <defs
     id="defs62" />
  <sodipodi:namedview
     id="base"
     pagecolor="#ffffff"
     bordercolor="#666666"
     borderopacity="1.0"
     inkscape:pageopacity="0.0"
     inkscape:pageshadow="2"
     inkscape:zoom="0.35"
     inkscape:cx="110.8379"
     inkscape:cy="322.41251"
     inkscape:document-units="mm"
     inkscape:current-layer="layer1"
     showgrid="false"
     fit-margin-top="0"
     fit-margin-left="0"
     fit-margin-right="0"
     fit-margin-bottom="0"
     inkscape:window-width="1280"
     inkscape:window-height="744"
     inkscape:window-x="-4"
     inkscape:window-y="-4"
     inkscape:window-maximized="1" />
  <metadata
     id="metadata65">
    <rdf:RDF>
      <cc:Work
         rdf:about="">
        <dc:format>image/svg+xml</dc:format>
        <dc:type
           rdf:resource="http://purl.org/dc/dcmitype/StillImage" />
        <dc:title></dc:title>
      </cc:Work>
    </rdf:RDF>
  </metadata>
  <g
     inkscape:label="Layer 1"
     inkscape:groupmode="layer"
     id="layer1"
     transform="translate(16.852647,-180.45692)">
    <path
       inkscape:connector-curvature="0"
       id="path32"
       style="fill:#e4002b;fill-opacity:1;fill-rule:nonzero;stroke:none;stroke-width:0.35277778"
       d="m 72.568504,227.30452 c -0.19085,-0.1464 -0.41804,-0.26388 -0.68192,-0.35171 -0.26388,-0.0878 -0.53128,-0.13194 -0.80257,-0.13194 -0.43991,0 -0.77717,0.097 -1.01177,0.29139 -0.23459,0.19439 -0.35171,0.4639 -0.35171,0.80821 0,0.19792 0.0459,0.37219 0.13723,0.52247 0.0917,0.14993 0.24377,0.28575 0.45649,0.40676 0.21237,0.121 0.55351,0.25469 1.0227,0.40146 0.66675,0.21236 1.15429,0.49283 1.46227,0.84066 0.30797,0.34855 0.46178,0.78281 0.46178,1.30351 0,0.69604 -0.22154,1.24426 -0.66534,1.6436 -0.44344,0.39969 -1.04986,0.59936 -1.81962,0.59936 -0.40323,0 -0.77894,-0.0441 -1.12678,-0.13194 -0.34854,-0.0882 -0.62159,-0.2053 -0.8195,-0.35207 -0.18309,-0.11712 -0.27481,-0.25293 -0.27481,-0.40674 0,-0.073 0.031,-0.17039 0.0935,-0.29104 0.0621,-0.12101 0.14111,-0.24413 0.23636,-0.36866 0.2787,0.22719 0.58068,0.40322 0.907,0.52776 0.32632,0.12488 0.6544,0.18697 0.98425,0.18697 0.48365,0 0.85407,-0.11148 1.11054,-0.33514 0.25647,-0.22366 0.38488,-0.5334 0.38488,-0.92922 0,-0.24235 -0.0441,-0.45085 -0.13194,-0.62689 -0.0882,-0.17567 -0.23071,-0.32807 -0.42898,-0.45613 -0.19755,-0.12842 -0.49459,-0.25471 -0.89041,-0.37959 -0.54998,-0.16123 -0.9659,-0.33161 -1.24812,-0.51153 -0.28223,-0.17956 -0.49319,-0.39759 -0.63218,-0.65405 -0.1397,-0.25648 -0.2092,-0.56056 -0.2092,-0.91263 0,-0.4251 0.0991,-0.78812 0.29704,-1.08869 0.19791,-0.30055 0.47484,-0.53128 0.83009,-0.69249 0.3556,-0.16123 0.76411,-0.24201 1.22625,-0.24201 0.29316,0 0.59373,0.0367 0.9017,0.11007 0.30798,0.0734 0.56409,0.17215 0.76941,0.29669 0.14675,0.0882 0.25294,0.17426 0.31926,0.25822 0.0656,0.0847 0.0988,0.17427 0.0988,0.26952 0,0.15382 -0.121,0.35209 -0.36265,0.59408 -0.0296,-0.0293 -0.0646,-0.0607 -0.10443,-0.0935 -0.0409,-0.0332 -0.0864,-0.0681 -0.13758,-0.10476 m -7.79604,-0.35173 h -2.33115 c -0.0222,-0.10266 -0.0332,-0.20495 -0.0332,-0.30796 0,-0.15383 0.0624,-0.28011 0.18697,-0.37925 0.12453,-0.0991 0.2861,-0.14851 0.484,-0.14851 h 5.04685 c 0.0148,0.103 0.0222,0.18696 0.0222,0.25294 0,0.17604 -0.0603,0.31715 -0.18132,0.42333 -0.12136,0.10654 -0.28434,0.15945 -0.48966,0.15945 h -1.73708 v 6.52039 h -0.96767 z m -5.74004,2.69416 c 1.20967,0 1.81433,-0.48401 1.81433,-1.45167 0,-0.47625 -0.13546,-0.81915 -0.40675,-1.02834 -0.27129,-0.2085 -0.73695,-0.31292 -1.39665,-0.31292 -0.34431,0 -0.60819,0.0148 -0.79163,0.0437 v 2.74919 z m -1.73743,-3.50802 c 0.45473,-0.0656 1.03011,-0.0988 1.72649,-0.0988 0.98249,0 1.69898,0.16687 2.14948,0.50024 0.4512,0.33373 0.67627,0.86713 0.67627,1.59985 0,0.37394 -0.0677,0.70944 -0.2032,1.00648 -0.13582,0.29633 -0.32632,0.54221 -0.57185,0.7366 -0.24554,0.19402 -0.52599,0.32808 -0.84139,0.4011 l 2.01226,3.18876 c -0.12453,0.0663 -0.29669,0.0991 -0.51647,0.0991 -0.32985,0 -0.5902,-0.14323 -0.7807,-0.42898 l -1.71555,-2.68287 h -0.97861 v 3.01272 h -0.95673 z m -2.53965,3.62867 c 0,-0.95284 -0.18168,-1.68203 -0.54435,-2.18827 -0.36264,-0.50554 -0.89251,-0.75847 -1.58891,-0.75847 -0.7186,0 -1.2647,0.25117 -1.63865,0.75317 -0.37358,0.50237 -0.56055,1.23367 -0.56055,2.19357 0,0.96804 0.18485,1.71381 0.55527,2.23768 0.37006,0.52457 0.90698,0.78635 1.61078,0.78635 0.70379,0 1.24071,-0.26388 1.61113,-0.79165 0.36971,-0.5281 0.55527,-1.27176 0.55527,-2.23238 m 1.00048,-0.0109 c 0,1.20226 -0.27869,2.14983 -0.83572,2.84268 -0.55705,0.6925 -1.34904,1.03893 -2.37526,1.03893 -0.67451,0 -1.24424,-0.15593 -1.70956,-0.46743 -0.46567,-0.3115 -0.8195,-0.76023 -1.06116,-1.3469 -0.242,-0.58667 -0.363,-1.27177 -0.363,-2.05635 0,-0.7694 0.13194,-1.44392 0.39616,-2.02318 0.26388,-0.57926 0.63748,-1.01882 1.12149,-1.31938 0.48365,-0.30057 1.05551,-0.45085 1.71519,-0.45085 0.66711,0 1.23156,0.15204 1.69335,0.45614 0.46178,0.30444 0.81385,0.74048 1.05551,1.30845 0.24199,0.56832 0.363,1.24107 0.363,2.01789 m -8.158335,-2.45216 c -0.190849,-0.1464 -0.418039,-0.26388 -0.681919,-0.35172 -0.263879,-0.0878 -0.53164,-0.13194 -0.802571,-0.13194 -0.439909,0 -0.777168,0.097 -1.011769,0.2914 -0.23459,0.19438 -0.351721,0.4639 -0.351721,0.80821 0,0.19791 0.0455,0.37218 0.137231,0.52246 0.0917,0.14993 0.243769,0.28575 0.456499,0.40676 0.21237,0.121 0.553511,0.2547 1.022702,0.40146 0.66675,0.21237 1.15429,0.49283 1.462259,0.84067 0.307981,0.34854 0.461791,0.78281 0.461791,1.30351 0,0.69603 -0.221541,1.24425 -0.665342,1.64359 -0.44344,0.3997 -1.050219,0.59937 -1.81963,0.59937 -0.40322,0 -0.778928,-0.0441 -1.12712,-0.13194 -0.348189,-0.0882 -0.621239,-0.20531 -0.81915,-0.35207 -0.183089,-0.11712 -0.274809,-0.25294 -0.274809,-0.40675 0,-0.073 0.031,-0.17039 0.0935,-0.29104 0.0621,-0.12101 0.141107,-0.24413 0.236008,-0.36866 0.278691,0.22719 0.581031,0.40323 0.907341,0.52776 0.326319,0.12488 0.65441,0.18697 0.98425,0.18697 0.483658,0 0.85408,-0.11148 1.110549,-0.33514 0.256471,-0.22366 0.384881,-0.5334 0.384881,-0.92921 0,-0.24236 -0.0441,-0.45085 -0.131939,-0.62689 -0.0882,-0.17568 -0.230722,-0.32808 -0.428983,-0.45614 -0.197548,-0.12841 -0.494588,-0.25471 -0.890407,-0.37959 -0.549982,-0.16122 -0.966261,-0.33161 -1.248132,-0.51153 -0.282218,-0.17956 -0.493178,-0.39758 -0.632169,-0.65405 -0.1397,-0.25647 -0.209201,-0.56056 -0.209201,-0.91263 0,-0.4251 0.0991,-0.78811 0.29704,-1.08868 0.197911,-0.30056 0.47448,-0.53128 0.83008,-0.6925 0.3556,-0.16122 0.764122,-0.242 1.226261,-0.242 0.293159,0 0.593371,0.0367 0.901349,0.11006 0.308321,0.0734 0.56444,0.17216 0.76976,0.29669 0.146751,0.0882 0.252941,0.17427 0.31891,0.25823 0.066,0.0847 0.0991,0.17427 0.0991,0.26952 0,0.15381 -0.121,0.35208 -0.363009,0.59408 -0.0296,-0.0293 -0.0642,-0.0607 -0.10442,-0.0935 -0.0406,-0.0332 -0.0864,-0.0681 -0.137232,-0.10477 m -9.049808,-1.18745 h 4.244621 c 0.0145,0.0734 0.02151,0.15064 0.02151,0.23108 0,0.39581 -0.22366,0.59371 -0.670631,0.59371 H 39.50407 v 2.2652 h 2.496608 v 0.84666 H 39.50407 v 2.59468 h 2.792939 c 0.220141,0 0.38876,0.0515 0.506241,0.15417 0.11712,0.10265 0.17568,0.24941 0.17568,0.43991 0,0.0734 -0.004,0.15028 -0.0109,0.23071 h -4.420351 z m -4.36562,3.52989 c 1.20967,0 1.81468,-0.48401 1.81468,-1.45168 0,-0.47625 -0.135822,-0.81915 -0.40675,-1.02834 -0.271639,-0.20849 -0.736952,-0.31292 -1.39665,-0.31292 -0.34466,0 -0.608539,0.0148 -0.791631,0.0437 v 2.74919 z m -1.737082,-3.50802 c 0.454732,-0.0656 1.03011,-0.0988 1.726142,-0.0988 0.98249,0 1.699329,0.16687 2.149829,0.50024 0.45085,0.33373 0.67627,0.86713 0.67627,1.59986 0,0.37394 -0.0677,0.70944 -0.2032,1.00648 -0.135818,0.29633 -0.326318,0.54221 -0.571849,0.7366 -0.245891,0.19401 -0.525989,0.32808 -0.84138,0.4011 l 2.012248,3.18875 c -0.124528,0.0663 -0.297039,0.0991 -0.516818,0.0991 -0.329502,0 -0.590201,-0.14323 -0.780701,-0.42898 l -1.715198,-2.68287 h -0.978611 v 3.01272 h -0.956731 z m -7.86166,3.4417 c -0.454728,0.19085 -0.799039,0.4364 -1.033629,0.73695 -0.234601,0.30058 -0.351718,0.64488 -0.351718,1.03364 0,0.4251 0.133699,0.76941 0.401097,1.03329 0.267412,0.26388 0.621253,0.39582 1.061162,0.39582 0.34466,0 0.648758,-0.0748 0.912641,-0.22508 0.263869,-0.15028 0.531278,-0.40146 0.802917,-0.75318 z m 2.342103,2.8702 c -0.366893,0.39582 -0.733081,0.68546 -1.099611,0.86854 -0.366541,0.18309 -0.76235,0.27481 -1.18745,0.27481 -0.498481,0 -0.923571,-0.0899 -1.275289,-0.26952 -0.352431,-0.1792 -0.621602,-0.43427 -0.80822,-0.76411 -0.187323,-0.32985 -0.280461,-0.71085 -0.280461,-1.1437 0,-0.5715 0.159109,-1.06998 0.47802,-1.49507 0.31891,-0.42511 0.771519,-0.75884 1.358191,-1.00084 -0.183441,-0.23425 -0.309743,-0.44874 -0.379593,-0.64312 -0.0699,-0.19402 -0.104068,-0.41239 -0.104068,-0.6544 0,-0.32244 0.0857,-0.60994 0.258238,-0.86289 0.171802,-0.2533 0.403223,-0.44733 0.692502,-0.58279 0.289629,-0.13581 0.60678,-0.20355 0.95109,-0.20355 0.527748,0 0.971201,0.121 1.330679,0.363 0.161222,0.11713 0.24165,0.24906 0.24165,0.39582 0,0.13899 -0.10971,0.32949 -0.329489,0.5715 h -0.110072 c -0.190849,-0.18308 -0.370419,-0.31327 -0.538689,-0.39017 -0.168978,-0.0769 -0.355959,-0.11571 -0.560919,-0.11571 -0.286102,0 -0.516821,0.0811 -0.692862,0.242 -0.17603,0.16157 -0.263869,0.37395 -0.263869,0.63818 0,0.16122 0.0349,0.32067 0.104421,0.47801 0.0695,0.15769 0.192619,0.34996 0.368649,0.57751 0.1905,0.23459 0.390171,0.48188 0.599019,0.74188 0.209201,0.2607 0.419802,0.5207 0.632183,0.7807 0.212719,0.26035 0.414157,0.508 0.605009,0.74259 0.219779,-0.53515 0.33338,-1.10348 0.340781,-1.70462 0,-0.26388 -0.004,-0.4579 -0.0113,-0.58279 h 1.7706 v 0.71473 h -0.967672 c -0.0367,0.85056 -0.227539,1.6129 -0.5715,2.28707 l 1.407232,1.72648 c -0.19086,0.0882 -0.370422,0.13194 -0.538692,0.13194 -0.28611,0 -0.527759,-0.11006 -0.726019,-0.32984 z m -8.565452,-5.14632 c -0.190849,-0.1464 -0.418039,-0.26388 -0.681918,-0.35171 -0.263872,-0.0878 -0.53163,-0.13195 -0.802572,-0.13195 -0.439909,0 -0.777171,0.097 -1.011758,0.2914 -0.234601,0.19438 -0.351722,0.4639 -0.351722,0.80821 0,0.19792 0.0459,0.37219 0.137229,0.52246 0.0917,0.14993 0.243771,0.28575 0.456491,0.40676 0.212371,0.12101 0.553511,0.2547 1.02271,0.40146 0.66675,0.21237 1.154279,0.49284 1.462259,0.84067 0.30797,0.34855 0.461791,0.78281 0.461791,1.30351 0,0.69604 -0.221549,1.24426 -0.66534,1.64359 -0.443449,0.3997 -1.050218,0.59937 -1.819629,0.59937 -0.403231,0 -0.778931,-0.0441 -1.126771,-0.13194 -0.348549,-0.0882 -0.621599,-0.20531 -0.81951,-0.35207 -0.183089,-0.11712 -0.274809,-0.25293 -0.274809,-0.40674 0,-0.073 0.031,-0.1704 0.0935,-0.29105 0.0621,-0.12101 0.141111,-0.24413 0.236361,-0.36866 0.27869,0.22719 0.58067,0.40323 0.906991,0.52777 0.326319,0.12487 0.654399,0.18697 0.98425,0.18697 0.483659,0 0.85407,-0.11149 1.110539,-0.33515 0.256471,-0.22365 0.384881,-0.5334 0.384881,-0.92921 0,-0.24236 -0.0441,-0.45085 -0.13194,-0.62689 -0.0882,-0.17568 -0.230711,-0.32808 -0.428971,-0.45613 -0.19756,-0.12842 -0.494599,-0.25472 -0.890411,-0.37959 -0.549978,-0.16123 -0.965909,-0.33161 -1.248129,-0.51154 -0.282221,-0.17956 -0.493189,-0.39758 -0.63218,-0.65405 -0.1397,-0.25647 -0.2092,-0.56056 -0.2092,-0.91263 0,-0.42509 0.0991,-0.78811 0.297039,-1.08868 0.197911,-0.30056 0.474491,-0.53128 0.830091,-0.69249 0.3556,-0.16123 0.764111,-0.24201 1.226251,-0.24201 0.293158,0 0.59373,0.0367 0.9017,0.11006 0.30798,0.0734 0.5641,0.17216 0.769408,0.29669 0.146762,0.0882 0.252942,0.17427 0.318911,0.25823 0.066,0.0847 0.0991,0.17427 0.0991,0.26952 0,0.15381 -0.120999,0.35208 -0.362998,0.59408 -0.0296,-0.0293 -0.0642,-0.0607 -0.104071,-0.0935 -0.0409,-0.0332 -0.0868,-0.0681 -0.137588,-0.10477 m -8.7196138,-1.19839 c 0.11713,-0.0145 0.20885,-0.0219 0.27447,-0.0219 0.4547298,0 0.6819088,0.23073 0.6819088,0.6925 v 5.8607 h 2.550941 c 0.21273,0 0.375711,0.0515 0.489299,0.15417 0.113602,0.10265 0.170752,0.24553 0.170752,0.42897 0,0.0804 -0.004,0.16475 -0.0113,0.25259 H 9.6403492 Z m -5.59682,0.0109 h 4.24427 c 0.0145,0.0734 0.0219,0.15064 0.0219,0.23107 0,0.39582 -0.22366,0.59372 -0.67099,0.59372 h -2.63877 v 2.26519 h 2.49625 v 0.84667 h -2.49625 v 2.59468 h 2.79294 c 0.22013,0 0.38841,0.0515 0.50588,0.15417 0.11712,0.10265 0.17568,0.24942 0.17568,0.43992 0,0.0734 -0.004,0.15027 -0.0109,0.2307 h -4.41996 z m -4.34339999,0.83573 H -2.6310108 c -0.0222,-0.10266 -0.0332,-0.20496 -0.0332,-0.30796 0,-0.15383 0.0624,-0.28012 0.18697,-0.37925 0.12453,-0.0991 0.2861,-0.14852 0.48401,-0.14852 h 5.04684 c 0.0148,0.10301 0.0222,0.18697 0.0222,0.25295 0,0.17603 -0.0603,0.31714 -0.18133,0.42333 -0.12136,0.10653 -0.28434,0.15945 -0.48966,0.15945 H 0.66773921 v 6.52039 h -0.96767 z m -3.73838001,2.81481 c 0,-0.95284 -0.18168,-1.68204 -0.54434,-2.18828 -0.36301,-0.50553 -0.89288,-0.75846 -1.58891,-0.75846 -0.71861,0 -1.26471,0.25117 -1.63865,0.75317 -0.37359,0.50236 -0.56092,1.23367 -0.56092,2.19357 0,0.96803 0.18521,1.7138 0.55563,2.23767 0.36971,0.52458 0.90699,0.78636 1.61078,0.78636 0.70379,0 1.24072,-0.26389 1.61078,-0.79165 0.37007,-0.52811 0.55563,-1.27176 0.55563,-2.23238 m 1.00048,-0.0109 c 0,1.20227 -0.2787,2.14983 -0.83609,2.84269 -0.55703,0.69249 -1.34867,1.03892 -2.3749,1.03892 -0.67451,0 -1.24424,-0.15593 -1.70991,-0.46742 -0.46531,-0.3115 -0.81915,-0.76023 -1.0608,-1.34691 -0.24201,-0.58666 -0.36301,-1.27177 -0.36301,-2.05635 0,-0.7694 0.13194,-1.44391 0.39582,-2.02317 0.26387,-0.57926 0.63782,-1.01882 1.12183,-1.31939 0.48366,-0.30057 1.05551,-0.45085 1.7152,-0.45085 0.66711,0 1.23155,0.15204 1.69334,0.45615 0.46178,0.30444 0.81386,0.74047 1.05551,1.30844 0.242,0.56832 0.36301,1.24108 0.36301,2.01789 m -13.2827902,-3.65054 c 0.11712,-0.0145 0.20884,-0.0219 0.27481,-0.0219 0.45473,0 0.68157,0.23071 0.68157,0.69249 v 2.45217 h 3.49673 v -3.1228 c 0.11712,-0.0145 0.20885,-0.0219 0.27517,-0.0219 0.45438,0 0.68157,0.23072 0.68157,0.6925 v 6.69643 h -0.95674 v -3.40851 h -3.49673 v 3.40854 h -0.95638 z m 82.134425,-45.14498 v 20.46252 c 0,5.60988 -1.82421,9.51054 -7.82672,9.51054 -6.03885,0 -7.66728,-3.90737 -7.66728,-9.50983 v -14.90945 c 0,-5.79508 -7.479243,-5.55378 -7.479243,-5.55378 v 20.99698 c 0,9.24278 4.291899,15.92158 15.146523,15.92158 10.84615,0 15.30597,-7.37307 15.30597,-15.92158 v -20.99698 z m -41.484903,0 v 36.33047 h 7.479239 v -30.77669 c 0,-5.79508 -7.479239,-5.55378 -7.479239,-5.55378 M 0.42262921,198.32029 H -8.8734108 v -10.8451 h 9.29604001 c 3.41947999,0 5.87904999,1.86937 5.87904999,5.44936 0,3.36586 -2.45957,5.39574 -5.87904999,5.39574 m 9.18280999,9.88061 c -1.28764,-2.25073 -2.2733,-3.81671 -2.9965,-4.89128 4.4044408,-1.6644 7.4912398,-5.50933 7.4912398,-10.54593 0,-8.92211 -7.3173198,-11.80677 -14.47728979,-11.80677 H -16.352651 v 36.33047 h 7.4792402 v -13.08912 h 3.63361 c 0.57785,0 1.14335,0.0113 1.7085,0.0254 0.88124,0.054 2.39395,0.44873 3.49673001,2.23555 1.14864999,1.89618 1.75647999,3.18559 3.48191999,6.0572 1.89653,3.14184 3.80612,5.36329 7.1740908,5.36329 4.245329,0 4.81965,-4.11903 4.81965,-4.11903 -2.661362,-0.86219 -4.5593,-3.32952 -5.8356508,-5.55978" />
  </g>
</svg>
